<?xml version="1.0" encoding="UTF-8"?>
<svg id="Layer_1" data-name="Layer 1" xmlns="http://www.w3.org/2000/svg" viewBox="0 0 1366 1555">
<svg y="-200">
  <g id="body_Button_Shirt_1" data-name="body Button Shirt 1">
    <g id="_Skin-4" data-name=" Skin-4">
      <path id="_Skin-5" data-name=" Skin-5" d="M357.67136,1546.56222c130.645,19.84399,263.66001,20.84198,395.39002,13.63599,52.134-3.90002,104.42801-4.60602,156.51999,.38397,30.78101,2.289,165.742,12.59998,176.76801-14.96399-6.94-146.80499-21-294.85999-64.11499-436.04999-17.73297-50.133-32.96399-91.743-67.57397-133.229-10.90802-11.327-34.43201-35.08301-47.91101-42.83099-11.67798-6.711-16.55902-4.317-23.26398-15.653-6.66302-12.523-11.578-33.437-21.039-42.27299-9.633-9-23.909-5.778-41.60001-2.88,3.25101-43.931-17.02701-55.119-44.96301-63.473-49.10001-18.741-97.60001-9.326-109.95999,50.451-22.91602,0-35.78799,9.862-49.70001,19.337-5.689,3.873-1.73099,13.742-8.526,16.787-12.57199,4.476-34.78699,3.38-46.892,8.888-55.05405,25.048-104.07904,61.37-136.27504,114.426-72.18,113.26599-121.763,351.86203-113.183,486.108-3.759,5.90002,1.439,14.34802,2.76,20.68701,1.65086,5.51862,6.97173,9.10114,12.706,8.55499,7.866,8.45898,20.033,10.34198,30.858,12.09399Z" style="fill: #fffefd;"/>
      <path id="_Skin-6" data-name=" Skin-6" d="M357.67136,1546.56222c130.645,19.84399,263.66001,20.84198,395.39002,13.63599,52.134-3.90002,104.42801-4.60602,156.51999,.38397,30.78101,2.289,165.742,12.59998,176.76801-14.96399-6.94-146.80499-21-294.85999-64.11499-436.04999-17.73297-50.133-32.96399-91.743-67.57397-133.229-10.90802-11.327-34.43201-35.08301-47.91101-42.83099-11.67798-6.711-16.55902-4.317-23.26398-15.653-6.66302-12.523-11.578-33.437-21.039-42.27299-9.633-9-23.909-5.778-41.60001-2.88,3.25101-43.931-17.02701-55.119-44.96301-63.473-49.10001-18.741-97.60001-9.326-109.95999,50.451-22.91602,0-35.78799,9.862-49.70001,19.337-5.689,3.873-1.73099,13.742-8.526,16.787-12.57199,4.476-34.78699,3.38-46.892,8.888-55.05405,25.048-104.07904,61.37-136.27504,114.426-72.18,113.26599-121.763,351.86203-113.183,486.108-3.759,5.90002,1.439,14.34802,2.76,20.68701,1.65086,5.51862,6.97173,9.10114,12.706,8.55499,7.866,8.45898,20.033,10.34198,30.858,12.09399Z" style="fill: none;"/>
    </g>
    <path id="_Top" data-name=" Top" d="M629.47136,868.65522c8.04999-8.4,20.672-13.412,32.625-13.13l.56,.017,4.05801,.182-2.70801,13.303-.13699,.631-.55301,2.31-.73599,3.024-.26199,1.112-.276,1.231c-.04333,.2-.08597,.39767-.12799,.593l-.121,.582-1.15601,5.652,.216,.5-.06201,1.284c-.17899,4.643,.82101,7.194,3.02499,8.013l.17599,.061,1.25699,.4,1.026,2.226c2.35999,5.09,4.56201,9.536,6.823,13.724,6.96848,12.7698,14.83142,25.03072,23.53,36.691,8.61731,11.65866,17.59335,22.77634,26.92801,33.353,4.20001,4.75101,8.63,9.521,13.34799,14.377l4.06201,4.159,1.29199,1.30701,.86899,.867,1.08401,1.061,1.56201,1.489,1.13199,1.114,.367,.349c.3522,.34111,.73367,.65063,1.14001,.925l.11899,.07401,.35699,.21201,18.82901,19.8,6.651,3.657,3.15799,1.75,.64001-1.27299,.129-.409,7-15.369,4.27301-9.41299c8.771-19.366,15.60001-34.772,21.836-49.441l.77701-1.83,2.29999-5.458,1.21799-2.912c5.578-13.367,9.70001-23.683,13.38599-33.7l.52399-1.43,.776-2.141,1.15399-3.229,.21002-.552c1-2.564-1.45898-11.884-3.88202-16.989l-.13702-.284-.63-1.265-.68201-1.334c-1.68866-3.43131-2.94464-7.05908-3.73901-10.8-.15802-.68-.30701-1.36533-.44702-2.056l-.20001-1.04-.129-.683-.17999-.956-.25699-1.37,5.42297-.906,2.97498-.485,1.29999-.2c1.68103-.26,3.17798-.473,4.586-.652l.52399-.065,.94299-.112,.034,.186,1.935,.191,1.43701,.149c5.51141,.50413,10.9881,1.33458,16.40118,2.48696l.38202,.092,.69202,.175,.31598,.084c3.43146,.93191,6.41138,3.07094,8.39203,6.024,1.63971,2.43241,2.96552,5.06223,3.94598,7.827l.54303,1.359,1.79999,4.456c.21069,.54266,.53668,1.40933,.97803,2.6l1.53003,4.165,7.66699,21.172,7.84601,4.128c3.64697,1.908,6.315,3.284,7.63202,3.935l.46698,.227,.33398,.153,2.70001,1.072-.28998,.844,.32599,.187c32.29999,18.581,57.21301,47.166,76.60699,85.115l.586,1.153,.59998,1.194c15.45697,30.911,26.53101,65.40601,37.34399,111.45999l.66901,2.86301,.52698,2.27701,2.81897,12.29001c10.59198,46.39999,17.87097,81.00598,23.89398,114.95801l.39099,2.21301,1,5.76801c7.56403,43.94598,13.88605,87.48431,18.966,130.61499l.841,7.25702c2.11499,18.52899,4.02502,37.68201,6.09998,60.68103l.27698,3.09003,.91302,10.33099c.97137,11.13336,1.85895,22.24268,2.66302,33.328l.39502,5.54102,.81097,12.04797,.47699,6.86603,.05798,.92902,.19299,3.578,.05298,.84003c.073,1.07501,.15503,1.98297,.25897,2.82202l.08197,.617,.09198,.59998c.28229,1.66632,.84741,3.27216,1.67102,4.74799l.22601,.41302,1.5,2.685-2.72101,1.43402c-14.18903,7.47498-42.12402,10.763-80.44702,10.93402h-3.56403c-18.62201-.01099-38.35797-.72803-58.95099-1.95599l-4.65802-.28497-3.88702-.24799c-1.67401-.10901-3.29999-.21899-4.99402-.336l-2.59302-.18201-10.828-.79199c-48.70801-4.66602-99.78699-4.58801-156.07001-.375-146.73599,8.02698-273.38901,4.64001-392.42999-13.12799l-3.605-.54303-2.656-.43201-1.584-.26501c-12.627-2.15503-20.555-4.91901-26.742-10.716l-.324-.30798-.27-.26398h-.117c-6.33312-.09631-11.93479-4.13031-14.03378-10.10626l-.11-.32397-.14-.448-.1-.44702c-.1-.43103-.222-.90002-.371-1.40802l-.117-.39203-.98-3.21997,3.313-.60602c.36809-.09711,.68164-.3382,.87-.66901l.276-.39795,.478-.66302,1.154-1.58197c.93542-1.16125,1.6579-2.47894,2.134-3.89203,.29289-1.2821,.40598-2.59869,.336-3.91199l-.022-.83801-.131-3.039c-.009-.24402-.014-.45697-.018-.66302v-4.58405l.011-4.70001c.008-2.05103,.019-4.05402,.035-6.01898l.027-2.922,.027-2.35602c.15933-13.02667,.54167-26.03931,1.147-39.03802,1.18333-25.37201,3.211-50.68732,6.083-75.94598,5.7096-51.04773,14.84657-101.65359,27.349-151.47488l1.241-4.87701c13.354-52.19101,26.23-92.427,42.6-129.63499,20.814-47.32401,46.19299-86.272,78.14801-117.408,17.1465-16.84341,36.56868-31.20103,57.7-42.654,9.83577-5.23415,20.00929-9.80727,30.453-13.689l1.55299-.578,2.50699-.916,1.923-.71,6.20001-2.316c1.29999-.488,2.72-1.034,4.39999-1.693l1.03799-.409,11.10001-4.427,1.84299-.725,2.04901-.8,1.50601-.578c2.46301-.939,4.69299-1.759,6.763-2.481l1.224-.422,1.10999-.374,4.737-1.639-.09201,4.309c-.061,2.865,.677,5.03,2.31601,6.585l.05499,.049,.05701,.045,.05099,.033,.28699-.008,1.11899-.005c.11597-.06343,.22519-.13848,.32599-.224,1.59299-1.353,2.33301-3.167,3.052-7.327l.19-1.157,.332-2.169,.13199-.82c.27399-2.17074,.84885-4.29278,1.70801-6.305,1.20993-2.69285,2.73672-5.23178,4.548-7.563l.42599-.541,1.70001-2.049,.26099-.323c.46225-.524,.81332-1.13636,1.03201-1.8l.03101-.134,.17001-.861,.60001-.634Z" style="fill: #fff;"/>
    <path id="_Ink-2" data-name=" Ink-2" d="M1086.54036,1560.91521c-2.55096-.01123-4.9339-1.27374-6.37598-3.37799l-.77899-1.19202c-1.88611-2.59442-3.1861-5.56769-3.81-8.71399-.33496-2.34003-.5426-4.69647-.62201-7.05902-.052-1.00702-.10602-2.047-.17902-3.06-.24799-3.42499-.47699-6.87903-.70001-10.21899l-.005-.08197c-.17798-2.67297-.36102-5.43701-.552-8.15399-.90002-12.84198-1.92603-25.90002-3.05402-38.81799-3.5-40.04199-5.88-61.909-7.56299-76.48602-5.09998-44.224-11.66498-89.72501-19.5-135.23999-7.75299-45.035-17.58002-89.375-27.04401-130.58301l-1.03003-4.48401c-5.26099-22.841-10.15698-41.271-15.40802-58-5.95837-19.50162-13.43073-38.50807-22.349-56.84601-4.44952-9.03337-9.40436-17.80893-14.84094-26.28499-5.38733-8.38937-11.35278-16.39311-17.85303-23.953-6.50885-7.55325-13.63-14.55637-21.29102-20.938-7.83844-6.50589-16.25854-12.27719-25.15399-17.241-.26996-.12837-.4093-.43153-.33099-.72,.09131-.39553,.48596-.64215,.88147-.55086,.05518,.01274,.10876,.03182,.15955,.05685,19.10553,9.08829,36.48932,21.42254,51.37799,36.45399,14.88269,15.02925,27.6651,32.00163,38,50.45599,9.90698,17.453,18.55902,37.188,26.45001,60.33301,7.5,21.98401,13.40002,44.422,18.19,63.47198l.383,1.52899c10.34497,41.29199,20.05402,86.078,29.68097,136.918,4.29999,22.69299,8.31403,46.20001,11.93799,69.88101,3.48499,22.77002,6.71503,46.40002,9.59998,70.242,3.10699,25.66101,5.48499,48.474,7.26898,69.74402,.97498,11.63501,1.87,23.39203,2.659,34.94299,.36798,5.38397,.646,9.82898,.87598,13.987l.185,3.5c.02502,.5,.05603,1.013,.086,1.5,.29858,2.66205,.18597,5.35419-.33398,7.98199-.64795,2.20264-1.55035,4.32227-2.68903,6.31598-.21002,.40002-.44702,.85797-.67401,1.30603-1.04688,2.1225-3.23193,3.44305-5.59784,3.383Zm-612.37299-2.32703c-1.21739-.0379-2.38385-.49738-3.3-1.29999l-.62601-.495-.442-.34399-.021-.01703c-1.94276-1.29059-3.55122-3.02417-4.69299-5.05798-1.815-3.51398-2.112-7.24799-2.42599-11.20001l-.007-.09497c-.358-4.48602-.26401-9.08899-.172-13.53998,.02901-1.414,.05901-2.87701,.07401-4.32397,.121-11.81702,.287-23.83698,.5-35.72601,.839-47.77197,2.49001-90.59998,5.04601-130.94397,1.36099-21.47501,3.189-42.19501,5.433-61.58398l.452-3.832c.347-2.91101,.68201-5.86499,1.005-8.72202,.354-3.12601,.72-6.35901,1.105-9.56299-10.98845-7.77356-20.74986-17.15002-28.959-27.81699-.20932-.25961-.24838-.61731-.10001-.91599,.12148-.27118,.38518-.45099,.68201-.465,.20822,.00702,.40433,.09964,.54201,.25601,4.17337,4.31714,8.70859,8.2692,13.55597,11.8129,4.83322,3.51968,9.93712,6.65176,15.26401,9.367,1.45399-10.655,3.754-24.556,8.66299-37.57401,.15613-.38449,.53001-.63574,.94501-.63501,.38058-.01254,.71141,.25922,.77299,.63501,2.46001,11.073,2.83501,22.62799,3.2,33.79999,.02266,.69467,.04532,1.38831,.06799,2.08099,.343,10.37201,.408,21.70499,.2,35.66501-.495,33.83701-1.339,68.20499-2.15601,101.44199l-.011,.44c-.23399,9.50598-.47501,19.336-.7,29-.45599,19.22101-.976,42.03302-1.377,65.48798-.138,8.04901-.259,16.31299-.358,24.56299l-.121,10.79999c.00238,4.76373-.25366,9.52405-.767,14.26001-.28299,3.12665-1.28729,6.14508-2.93401,8.81799-.95979,1.34985-2.17842,2.49542-3.58501,3.37-.362,.25897-.73599,.526-1.10001,.80499l-.32001,.24597c-.9292,.80273-2.10568,1.26239-3.33296,1.30212l.00002-.00006Zm285.521-7.03497c-1.01511,.07489-1.92847-.61432-2.13501-1.61102-2.45099-15.20801-2.888-30.92499-3.311-46.125v-.10797c-.061-2.17603-.12299-4.42499-.19101-6.633l-.11401-3.52301c-.65601-19.125-.95499-38.23199-.89099-56.78802,.20001-55.664,1.448-112.23499,2.65701-166.944v-.00595l.008-.34c.25299-11.45599,.51501-23.29999,.76199-34.95099,.194-9.08801,.37299-18.332,.54599-27.271v-.242c.47101-24.28699,.95801-49.39999,1.77499-74.10599,.608-18.41699,1.245-35.03699,1.94601-50.811l.064-1.45v-.013c.30801-6.951,.62601-14.14,1.10001-21.2l.22699-3.23599c.077-1.04401,.14801-2.10001,.216-3.11301v-.02c.069-1.024,.14001-2.08299,.21701-3.129-1.28592,.47075-2.64465,.71143-4.01401,.711-4.24399,0-8.31699-2.242-12.25601-4.411-.965-.53101-1.95801-1.078-2.931-1.578l-5.814-2.993-.431-.222c-4.88599-2.51601-9.939-5.117-14.97601-7.7l-7.08301-3.62601-14.17401-7.23199c-.53799-.27499-1.07101-.552-1.586-.819l-.01199-.006c-3.694-1.922-6.884-3.58099-10.39999-3.58099-2.15161,.03186-4.25711,.62807-6.10599,1.729-21.62299,12.131-43.70001,28.89999-67.48001,51.27299-1.59927,1.42027-3.67447,2.18674-5.81299,2.147-1.68231,.02431-3.33261-.46094-4.73401-1.392-1.42911-.98436-2.38412-2.51906-2.63599-4.23601-.98618-6.21603-1.63977-12.48029-1.95801-18.76601-.31601-5.89999-.39999-12.067-.246-18.839,.28-12.571,1.33401-25.33499,2.353-37.679l.017-.2c.11334-1.36867,.22601-2.73534,.33801-4.10001l.79999-9.823c.86401-10.48,1.94501-22.852,3.42099-35.145l.064-.533v-.017c.60001-4.957,1.20999-10.083,1.87701-15.116l.53201-3.911c.15799-1.128,.30801-2.273,.453-3.38v-.03c.51425-5.02032,1.45566-9.98765,2.814-14.848-.61295-.19589-1.17386-.52744-1.64099-.97-2.45401-2.328-3.52899-5.672-3.194-9.937,.40714-3.68985,1.37073-7.29676,2.85803-10.69804,2.51691-6.10935,6.2847-11.62426,11.061-16.19,1.07065-1.03713,2.48651-1.64249,3.97601-1.7,4.00177-2.70152,8.31665-4.90731,12.85001-6.569,4.34378-1.58352,8.92673-2.41116,13.54999-2.447,3.73914,.00487,7.45529,.58499,11.01801,1.72,.45001-2.149,.79999-3.785,1.147-5.3l.405-1.762c.22198-.948,.414-2.03,.617-3.174,.33093-2.15442,.81516-4.28249,1.44897-6.368,.52155-1.93604,1.60641-3.67353,3.117-4.992,.08334-.06686,.18619-.10477,.293-.108,.09167-.00227,.17935,.03752,.23801,.108,1.98199,2.31,1.96799,5.715,1.95599,8.719,0,.611,0,1.188,.008,1.761l.009,.326c.14801,4.455,.20001,9.184,.185,15.332l-.05301,16.291c0,.829-.02899,1.686-.05499,2.515-.04501,1.421-.091,2.889-.01901,4.309l.06,.872c1.28275,1.3076,1.81049,3.17886,1.39999,4.964-.0824,2.25845-1.24506,4.33972-3.125,5.594l3.87701,5.5,3.88101,5.5c9.68701,13.739,17.24701,24.109,24.51401,33.622,8.306,10.872,17.51001,21.8,27.35599,32.482,5.03699,5.467,9.72501,10.375,14.332,15,1.375,1.383,2.79001,2.757,4.159,4.08701,.61099,.59399,1.24399,1.20799,1.86401,1.814l2,1.97501c.27301,.27299,.55499,.53799,.854,.82001h0c1.02325,.85863,1.89886,1.87915,2.59201,3.021,.29501,.78383,.48077,1.60452,.552,2.439,.02979,.33134,.08936,.65933,.17801,.98,.69943,1.71744,.51807,3.66795-.48599,5.22701-.6622,1.15204-1.87949,1.873-3.20801,1.89999-.53021-.00591-1.05472-.10999-1.547-.30701l.19-.127c.25-.173,.366-.29201,.34698-.354-.01001-.033-.061-.05-.151-.05-.56665,.06799-1.12445,.19604-1.664,.382-1.07947,.00096-2.1431-.25946-3.10001-.759l-.28699-.158c-1.1553-.68713-2.20236-1.54176-3.10699-2.536-.20001-.2-.38-.377-.564-.55499l-.27301-.261c-2.13599-2-4.21701-4.134-6.229-6.2l-1.112-1.13901c-5.33099-5.44501-10.15399-10.618-14.74399-15.814-9.30899-10.539-18.42401-21.828-27.09201-33.556-8.77823-11.77713-16.71683-24.15737-23.75699-37.049-2.39001-4.425-4.73599-9.167-7.383-14.922-2.08698-.66084-3.73508-2.27515-4.439-4.348-.77417-2.35755-1.05133-4.84997-.814-7.32-1.71509-3.82743-3.06995-7.80628-4.04706-11.885-.06464-.36322,.17743-.71006,.54068-.77468,.02655-.00473,.05338-.00784,.08032-.00932,.15521,.00147,.30176,.07182,.39999,.192,1.44281,1.6579,2.80121,3.38742,4.07001,5.182,.44601-2.18,.95401-4.24,1.39999-6.058v-.013c.33099-1.341,.617-2.5,.81299-3.444l2-9.828c-.62799-.033-1.27899-.05-1.93201-.05-5.50162,.03646-10.94437,1.1356-16.02899,3.237-5.06461,2.0288-9.65302,5.08661-13.47501,8.98-.33401,1.689-1.42099,2.972-2.67899,4.458l-.00601,.007c-.30899,.365-.629,.743-.94699,1.138-1.83307,2.27809-3.36935,4.77977-4.57199,7.445-.9317,2.44911-1.53952,5.00944-1.80801,7.616-.63101,4.217-1.284,8.579-4.40601,11.23-.50729,.43017-1.09549,.75452-1.73001,.954,1.86301,9.134,1.63,18.992,1.40601,28.526v.017c-.064,2.727-.13101,5.547-.14301,8.255v1.055c.01199,14.01-.48599,28.10699-.95401,40.22101l-.52701,13.258c-.65601,17.011-1.151,35.11301,.59201,52.957,7.82999-6.935,16.022-13.629,24.34799-19.89999,5.483-4.12801,11.16-8.17101,16.87601-12.01801l4.65601-3.11099,.19501-.13c5.492-3.683,11.17099-7.491,17.20801-10.13901,3.07162-1.37891,6.40005-2.09285,9.767-2.095,4.70648,.1194,9.32852,1.27663,13.53601,3.38901,5.26599,2.45399,10.5,5.22099,15.569,7.89999h0c2.323,1.22701,4.72601,2.5,7.10001,3.716,5.854,3.013,11.79999,6.047,17.547,8.98199l.823,.42,4.64999,2.37399c1.23199,.63,2.58899,1.23801,4.026,1.883,4.414,1.979,9.41199,4.22,12.237,7.842,.24799-1.10001,.53101-2.16499,.83899-3.16299-.4028-1.68779-.16327-3.46507,.672-4.98599,12.20001-22.411,23.354-45.024,35.63501-70.14,2.85199-5.832,5.68201-11.8,8.418-17.563l.013-.027c2.849-6.005,5.79999-12.215,8.77402-18.29l5.67499-11.6c1.14099-2.324,2.021-4.11,2.85602-5.791,.83502-1.681,1.68799-3.352,2.52002-4.981,.60999-1.194,1.23999-2.426,1.85101-3.642,.284-.565,.60699-1.138,.91998-1.692l.00598-.011c.35999-.637,.73102-1.3,1.04797-1.949l.28198-.616c.013-.029,1.039-3.251,.63599-3.871-.03674-.06371-.10547-.10212-.17902-.1-.04468,.00127-.08875,.01076-.13,.028l-.091,.044c-.08179,.04868-.17487,.07522-.27002,.077-.18524-.00439-.35126-.11546-.42603-.285-.09473-.19683-.06708-.43071,.07098-.6,.35254-.4977,.91833-.80096,1.52802-.819,1.211,0,2.36401,1.206,2.92297,2.327,1.88,3.766-.47101,9.221-2.35999,13.6-.479,1.113-.93103,2.161-1.27002,3.084l-.09198,.253c-5.32001,15.059-11.31702,29.691-17,43.259-10.97699,26.183-22.93399,52.427-34.5,77.806l-1.64899,3.62-.147,.465c1.5-1.147,3.052-2.235,4.556-3.286h.00601c1.14999-.8,2.237-1.564,3.26901-2.328,6.17599-4.575,12.73199-9.05299,18.51599-13.005,10.5-7.173,21.966-14.395,35.05499-22.078l2.38599-1.39999c2.46149-1.4893,5.04077-2.7746,7.71198-3.843,2.62036-1.03865,5.40948-1.58643,8.22803-1.616,.99634,.00084,1.99133,.07436,2.97699,.22,5.44202,.8,10.57599,3.367,15.53998,5.847,1.00598,.5,2.04498,1.022,3.05798,1.511l.61298,.293,18.32501,8.71201c-1.79999-7.16499-3.854-14.8-6.29303-23.33099-4.25201-14.881-9.034-30-14.21503-44.933-4.638-13.375-9.71198-26.852-15.51001-41.2l-1.65601-4.084-.18201-.456-.05402-.135c-.97565-2.74734-2.25592-5.37674-3.81702-7.839-1.58563-2.45026-4.01575-4.23306-6.82898-5.01-2.35376-.54164-4.76825-.7726-7.18201-.687h-1.91797c-3.73297,0-7.34497-.163-10.50598-2.135-.26312-.16892-.39978-.4788-.34698-.787,.03729-.28489,.24658-.5172,.526-.584l3.612-.911c5.034-1.252,10.37201-2.41,15.30701-2.41,1.9668-.02087,3.92859,.20319,5.84003,.667,3.51813,.96926,6.74969,2.77491,9.41919,5.263,2.6925,2.43706,4.96375,5.30233,6.72198,8.48,2.93604,5.60139,5.48499,11.39729,7.62903,17.347,.53497,1.385,1.08899,2.817,1.64697,4.23l.453,1.138c3.31201,8.257,6.492,16.558,9.45099,24.672,5.95001,16.311,11.5,33.19,16.5,50.16899,2.27802,7.741,4.52002,15.761,6.854,24.519,.328,1.233,.76801,2.60001,1.23297,4.048v.01199c.42902,1.336,.87201,2.717,1.27698,4.138,1.01453,.98808,1.9386,2.06506,2.76099,3.218,.56458,.76173,.789,1.72304,.62,2.65601-.25848,1.19243-.97723,2.23462-2,2.89999,.00165,1.99306-.55804,3.94629-1.61499,5.636-1.6629,2.48042-4.46393,3.95573-7.45001,3.924-2.14728,.04694-4.22089-.78366-5.742-2.3-1.36267-1.49625-2.03552-3.4953-1.85498-5.511,.09058-1.33075,.56738-2.60617,1.37201-3.67l-.02301-.174-.08899-.31799c-1.125-.539-2.23199-1.10001-3.40002-1.7h-.008c-.83301-.425-1.69501-.864-2.56897-1.3l-19.23199-9.5c-1.48401-.733-2.98297-1.558-4.57001-2.431-4.341-2.388-8.82599-4.855-13.36798-5.62399-.5697-.09529-1.14636-.14279-1.724-.142-4.23499,0-8.586,2.439-12.42499,4.592-.93402,.52299-1.815,1.01801-2.67999,1.47l-.32202,.16701c-13.12,6.724-26,13.63499-35.76001,18.89999-3.36499,1.81799-6.76199,3.71201-10.04599,5.54199l-.04401,.02499c-2.35001,1.31-4.78101,2.66499-7.17999,3.981-1.323,.726-2.64899,1.52299-4.05301,2.367h-.00601c-3.66599,2.2-7.457,4.48399-11.38699,5.567-1.03592,.83083-2.3241,1.28372-3.65201,1.284-1.28513-.02019-2.53955-.39609-3.62399-1.086,.65253,4.68692,1.00958,9.41025,1.069,14.142,.05399,1.61301,.10999,3.28101,.189,4.92799,.345,7.07001,.45001,14.27,.55099,21.23399,.021,1.45799,.043,2.965,.06699,4.44901l.056,3.209c.34799,18.12199,.55499,36.7,.63101,56.787,.16299,42.95099-.08401,86.621-.323,128.854-.13599,24.04901-.27701,48.91599-.34,73.38998-.07599,29.62402-.582,60.96399-1.63901,101.62-.38901,14.992-1.23401,30.05603-2,43l-.46399,7.81299c-.13901,2.34198-.272,4.72198-.39999,7.02301-.78201,13.97998-1.591,28.43597-4.20999,42.39203-.24115,1.00336-1.17148,1.68604-2.20096,1.61499h.00101Zm30.771-2.41199c-.91037-.00232-1.81647-.12433-2.69501-.36298-5.40042-1.48853-8.57166-7.07312-7.08313-12.47357,.00003-.00012,.00009-.00031,.00012-.00043l.245-.586c.97824-3.53564,3.74051-6.29828,7.276-7.27698,.88919-.24359,1.80707-.3667,2.729-.36603,2.77448,.00085,5.43668,1.0957,7.409,3.047,4.06824,4.07025,4.06662,10.66785-.00366,14.73608-1.18103,1.18048-2.62845,2.05975-4.22034,2.5639l-.37399,.112-.586,.24402c-.87952,.23877-1.78665,.36078-2.698,.36298h.00101Zm210.59998-22c-.88647-.00897-1.77094-.08484-2.646-.22699-2.05908-.38934-3.86249-1.61975-4.97601-3.39502-1.16077-1.70428-1.84534-3.68762-1.98297-5.745-1.11102-23.289-2.638-47.87097-4.66901-75.151-2.19299-29.45398-3.84601-59.45099-5.44501-88.46002v-.06403c-.80902-14.68301-1.646-29.866-2.54303-44.79001l-.94-15.52798c-.91699-15.28799-1.92102-33.06-2.23199-50.51501-.091-5.056-.01703-10.194,.05499-15.16299,.086-6,.17603-12.20999-.02502-18.31201-.05701-1.742-.13702-3.547-.21301-5.29199-.38599-8.79999-.78601-17.90799,1.09998-26.31201,.05969-.20801,.25372-.34839,.46997-.34,.16235-.00677,.31354,.08252,.38599,.228,2.29639,5.07471,3.97729,10.40591,5.00702,15.88,5.82898-7.37201,12.12701-15.23001,18.67297-22.74701,.12012-.15027,.30066-.23962,.49298-.24399,.26691,.01428,.50842,.16254,.64203,.39401,.1485,.22763,.16492,.51706,.04303,.76001-5.65601,11.086-11.89203,21.96301-17.92401,32.48199,.474,2.87399,.96503,5.84201,1.534,8.75201,.83099,4.25101,1.742,8.54401,2.62299,12.70001v.013c1.64203,7.73801,3.34003,15.73901,4.578,23.745,7.13599,46.13501,10.67798,93.117,13.43799,133.53403,2.98102,43.66699,3.43402,88.11597,3.87201,131.09998l.034,3.33398c-.03339,2.07599-.71948,4.08881-1.961,5.75299-1.17151,1.72754-2.96112,2.93988-5,3.38702-.78979,.14703-1.59149,.22064-2.39484,.22003l.00397,.00299Zm-688.27598-3.54401c-1.4553-.04364-2.80208-.78021-3.624-1.98199l-.7-.935-.109-.14502c-2-2.65399-3.894-5.16101-4.178-8.59998-.215-2.61298-.174-5.31702-.135-7.93298,.017-1.138,.035-2.315,.031-3.46899-.029-6.83002,.039-14.07599,.213-22.79999,.292-14.48102,.87-29.17401,1.72-43.66998,1.755-29.90002,4.671-59.59198,8.665-88.25299,3.6-25.814,8.163-51.93701,13.568-77.64301,5.368-25.53,11.7-51.28299,18.811-76.54401,7.573-26.89001,14.952-50.13699,22.556-71.06799,8.37644-23.40887,18.22509-46.2645,29.487-68.42999,5.393-10.50999,11.134-20.651,17.062-30.14,6.255-10.013,12.9-19.58299,19.737-28.44499,7.03392-9.1337,14.586-17.85638,22.619-26.12508,8.05815-8.28304,16.65057-16.02897,25.722-23.188,8.44798-6.65554,17.31602-12.75986,26.549-18.275,9.23801-5.50855,18.84669-10.3702,28.757-14.55,10.05341-4.32665,20.54405-7.55666,31.28999-9.634,7.0256-1.12608,14.12036-1.7676,21.23401-1.92,3.47101-.152,7.05801-.31,10.61099-.587h.061c.3002-.01216,.55341,.22134,.56558,.52153,.00034,.00848,.00049,.01698,.00043,.02547,.03128,.38308-.24548,.72251-.62701,.769-10.16599,1.18-20.10001,4.9-29.70001,8.5l-.03,.011c-1.64301,.616-3.34201,1.252-5,1.861l-.966,.352c-11.39577,4.07547-22.48058,8.97302-33.16698,14.65401-20.88924,11.31533-40.08656,25.50716-57.03,42.16-8.40611,8.21024-16.32559,16.90437-23.718,26.03799-7.34993,9.09373-14.22575,18.56065-20.60001,28.36301-6.188,9.5-12.181,19.68401-17.814,30.27899-5.321,10.009-10.49,20.7-15.365,31.787-9.43547,21.69026-17.6889,43.87575-24.724,66.459-6.3,19.91501-12.326,41.38901-18.95,67.58099-6.17,24.39999-11.615,49.65799-16.182,75.07999-4.445,24.74301-8.181,50.31299-11.1,76-2.85,25.04999-4.892,50.53497-6.068,75.74701-.6,12.89099-.985,25.99103-1.144,38.935-.074,6.013-.106,12.539-.1,19.95203,0,.84302,.043,1.72998,.087,2.66901,.24323,2.39587,.12389,4.8147-.354,7.17499-.75724,2.15137-1.89387,4.1496-3.356,5.90002-.389,.53003-.757,1.03003-1.109,1.539-.75749,1.20642-2.07178,1.95001-3.496,1.97797Zm478.15101-58.09998c-.177,0-.362,0-.54999-.01501l-.32101-.02002,.19299,.02502-.33801-.03802c-.31799-.02698-.63599-.06201-.94501-.09998-.09201-.01099-.18399-.021-.27701-.03101-.11499-.01202-.24399-.02502-.37-.04303-.14301-.01099-.255-.01599-.36301-.01599-.08899,0-.172,0-.25201,.01099-.17599,.01703-.35699,.02502-.53799,.02502-2.3028-.15302-4.47113-1.1391-6.10001-2.77399-.87863-.86743-1.57285-1.9035-2.04099-3.04602-.52448-1.12085-.76685-2.35297-.70599-3.58899l.09299-.90002c.08688-1.26349,.40695-2.5,.944-3.64697,.60529-1.48053,1.52359-2.81268,2.69199-3.90503,2.2095-2.1145,5.14185-3.3075,8.20001-3.336h.08899c1.94452-.03607,3.86124,.46533,5.539,1.44897l2.17001,1.67798c.556,.71399,1.13,1.45801,1.75601,2.27197,1.35501,1.76599,1.53601,4.638,1.254,6.737-.06293,1.39728-.49567,2.75275-1.254,3.92798l-1.65201,2.13898c-1.40567,1.26074-3.04968,2.22705-4.83499,2.84198-.77225,.24359-1.57825,.36316-2.38797,.35419Zm-.29999-114c-1.4162,.00781-2.81866-.27789-4.11899-.83899-2.02902-.82654-3.75739-2.25278-4.95401-4.08801l-.19199-.315c-.07999-.12799-.15799-.26199-.23001-.39999l-.10501-.20499c-2.28027-4.18805-1.61188-9.36713,1.65701-12.83899,1.90247-1.99402,4.55997-3.08972,7.31497-3.01605,1.92432-.00351,3.82034,.46335,5.52301,1.35999,.77304,.45166,1.49838,.98035,2.16501,1.578h.00601c.189,.15799,.384,.32101,.57401,.474,2.63199,2.12701,3.08099,6.03,3.15201,7.60901,.02954,1.41519-.25317,2.81949-.828,4.11301-.54001,1.30652-1.32938,2.49533-2.32401,3.5l-.45499,.44101c-1.18228,1.16675-2.67184,1.97339-4.29501,2.32599-.95258,.18774-1.92023,.28845-2.89102,.30103h.00101Zm-4.54501-108.11902c-.89725,.00134-1.79062-.11804-2.65601-.35501-3.45322-.95404-6.15146-3.65192-7.10599-7.10501l-.20001-1.37601c-.30423-1.73413-.22711-3.5137,.22601-5.215,.29016-1.07874,.70706-2.11932,1.242-3.10001,.7276-1.28146,1.70529-2.40369,2.875-3.29999,1.17004-.89175,2.49112-1.56552,3.89999-1.98901,.82742-.26239,1.68997-.39725,2.55801-.39999,.61548-.00058,1.22916,.0665,1.82999,.20001,2.84509,.37918,5.42529,1.86679,7.17899,4.13901,.96762,1.05695,1.64587,2.34592,1.96899,3.742l.392,2.92499-.392,2.92599-1.10999,2.629c-.35699,.465-.64999,.84399-.922,1.19199-1.04398,1.31699-2.3468,2.40607-3.828,3.20001-1.74265,1.2309-3.82449,1.89026-5.95801,1.88702h.00101Zm147.08698-88.68799c-1.63635-.03339-3.26959-.15823-4.89203-.37399-1.021-.116-2.07599-.237-3.09998-.30499-5.177-.34698-10.47699-.64301-15.75403-.88-10.953-.48901-20.94-.74799-30.53302-.79001-1.55798-.00699-3.20001-.01001-4.88202-.01001-7.78101,0-16.15997,.07501-25.61401,.228-2.88599,.047-5.85901,.15701-8.73297,.26401-3.87598,.14401-7.88397,.293-11.815,.293-3.61755,.02087-7.23376-.14603-10.83398-.5-.63428-.04279-1.14877-.53-1.22601-1.16101-.06543-.59933,.30969-1.15887,.88898-1.32599,8.66101-3,18.22998-4.17401,27.48499-5.314,1.06598-.13101,2.16602-.267,3.25201-.39999,10.15802-1.284,20.74902-2.24799,31.47803-2.867,11.48297-.659,22.11499-1.01501,32.5-1.08801,1.61603-.01099,3.258-.017,4.88-.017,2.547,0,5.14502,.01401,7.72198,.04199l3.15002,.04199c.69,.01099,1.36298,.01099,2.01398,.01099,4.46301,0,8.31598,0,11.92603,3.18799,1.18036,1.01093,1.81116,2.52188,1.70001,4.07199-.1554,2.02625-1.21033,3.87634-2.875,5.04199-1.99261,1.31635-4.35254,1.96432-6.73798,1.85007Zm-148.13199-25.194l-.34601-.00601c-1.94531-.0007-3.8555-.51837-5.535-1.5l-2.22101-1.715c-1.34192-1.34296-2.31342-3.01035-2.82001-4.84l-.39301-2.91599c.18201-5.84995,4.78207-10.60245,10.62299-10.97501l.34601,.00699c1.81201-.00403,3.59659,.44272,5.19299,1.29999l.34399,.19199,2.22,1.71399c1.34192,1.34296,2.31342,3.01035,2.82001,4.84l.392,2.91599c-.17963,5.8511-4.78085,10.60526-10.62299,10.97601l.00003,.00705Zm39.13699-226.68901h-.00702c-.08197,0-.16803,0-.25299-.006-2.61371-.07523-5.10358-1.13078-6.97498-2.957-1.84042-1.89905-3.23245-4.18595-4.07401-6.693-2.04401-5.515-2.57999-12.363-2.86801-16.043-.3588-4.76691,.03296-9.5606,1.16101-14.206,1.08823-4.65409,3.02014-9.06935,5.70001-13.027,.54926-.92388,1.53644-1.49892,2.61102-1.521,1.07617,.03895,2.08008,.55136,2.74298,1.4,.59241,.68516,.8418,1.60218,.67798,2.493,.17798,8.467,.63898,15.585,2.31702,22.8,.74097,3.50286,1.91394,6.90017,3.492,10.114l.68298,1.337c2.15302,4.253,3.70697,8.141,.90002,12.649-.65619,1.05697-1.54553,1.94976-2.59998,2.61-1.04865,.67012-2.26367,1.03381-3.50806,1.05Z"/>
  </g>
  <g id="head_Short_5" data-name="head Short 5">
    <g id="_Skin-139" data-name=" Skin-139">
      <path id="_Skin-140" data-name=" Skin-140" d="M757.70357,441.52876c53.33497,0,108.49972,44.012,128.05056,72.1,16.43793,23.613,25.28717,130.38801,25.28717,202.54801,0,15.09201,7.82258,43.54102,5.54193,57.97699-8.3655,52.89999-44.81355,97.26401-116.95072,97.26401s-123.86122-30.444-177.47987-112.17599c-26.0189,0-38.62444-21.23999-38.80761-54.759-.18317-33.51901,25.11246-45.714,25.11246-45.714,0,0-9.01738-132.27901,13.69515-166.718,22.71253-34.439,82.21596-50.522,135.55095-50.522Z" style="fill: #fff;"/>
      <path id="_Skin-141" data-name=" Skin-141" d="M757.70357,441.52876c53.33497,0,108.49972,44.012,128.05056,72.1,16.43793,23.613,25.28717,130.38801,25.28717,202.54801,0,15.09201,7.82258,43.54102,5.54193,57.97699-8.3655,52.89999-44.81355,97.26401-116.95072,97.26401s-123.86122-30.444-177.47987-112.17599c-26.0189,0-38.62444-21.23999-38.80761-54.759-.18317-33.51901,25.11246-45.714,25.11246-45.714,0,0-9.01738-132.27901,13.69515-166.718,22.71253-34.439,82.21596-50.522,135.55095-50.522Z" style="fill: none;"/>
    </g>
    <path id="_Ink-47" data-name=" Ink-47" d="M806.84918,871.25677c-8.36006,.02014-16.70392-.73645-24.924-2.26001-8.1194-1.49677-16.04413-3.9043-23.62399-7.177-7.51672-3.25031-14.54956-7.52115-20.89999-12.69199-6.52669-5.35577-12.17589-11.69904-16.743-18.79999-.11026-.15045-.12575-.35037-.03999-.51599,.11394-.18832,.31891-.3024,.539-.29999,.13902-.00082,.27391,.04733,.381,.13599,4.119,3.34628,8.51595,6.33511,13.14301,8.93399,4.51414,2.52185,9.21452,4.69485,14.06,6.5,9.86479,3.57306,20.09312,6.04865,30.5,7.38199,6.87276,.95401,13.80334,1.43082,20.742,1.427,7.7713-.00217,15.53157-.58514,23.21599-1.74399,7.71283-1.16006,15.32425-2.91565,22.76599-5.25101,7.39572-2.3187,14.58258-5.25748,21.48401-8.785,6.8345-3.49133,13.32196-7.6239,19.37497-12.34201,7.09534-5.59653,30.02467-81.13448,29.17583-91.76876-.15116-5.36572-.90487-51.43629-.79586-59.45231,.20001-16.032-.43799-32.935-1.89999-50.239-1.552-18.383-4.70001-36.8-7.745-54.61-2.017-11.8-4.10001-24-5.70001-36.071-.92105,.85916-2.13049,1.34222-3.39001,1.354-.86258-.00916-1.70996-.22813-2.46899-.638l-.23099-.127-1.22-.7c-.07397,.00194-.14777,.00829-.22101,.019-1.75,.17-3.55701,.256-5.371,.256-6.66519-.03737-13.28638-1.08252-19.63901-3.1-8.34055-2.57388-16.15665-6.61109-23.08295-11.92293-1.28476,6.67904-1.91409,13.46761-1.879,20.269,.01767,1.46419-.58676,2.8671-1.66299,3.86-1.03506,.93248-2.3819,1.44337-3.77499,1.43201-.92532-.00197-1.83719-.22154-2.66199-.64101-15.8448-8.05886-31.03159-17.35081-45.42-27.79l-1.052,5.387-.011,.056c-1.3,6.683-2.653,13.593-3.98801,20.39999-.22365,1.12868-.88615,2.12245-1.842,2.763-.9409,.6416-2.05417,.98294-3.19299,.979-.89508,.00912-1.77663-.21893-2.55499-.661-10.69867-6.22258-20.09422-14.45377-27.67-24.241-1.808,3.457-3.257,6.213-4.55901,8.674l-2.3,4.325c-2.319,4.343-5.354,8.964-10.28,10.31-.78589,.21808-1.59741,.33006-2.41299,.33299-2.01601-.01208-3.96425-.72917-5.507-2.02699-1.59155-1.33955-2.79929-3.07732-3.5-5.036-.521-1.426-1.02499-2.95-1.5-4.53-4.45331,10.23544-9.55017,20.17864-15.25999,29.77-7.81,13.024-17.252,25.02-26.383,36.621-.922,1.17133-1.84433,2.34401-2.767,3.51801-.74617,1.0408-1.94152,1.66629-3.222,1.686-2.606,0-5.361-2.60699-5.669-5.36501-.237-2.149-.446-4.38-.641-6.821-6.948,14.021-13,25.35001-19.031,35.65399l.975,3.817c1.973,7.931,3.741,16.036,5.45,23.87401,.721,3.306,1.467,6.72501,2.221,10.10001,.47361,2.38382-.01881,4.85815-1.369,6.879-.90751,1.41138-2.37381,2.36877-4.031,2.63199-1.53244,.25275-3.05001,.58856-4.546,1.00601-2.20845,.67456-4.49313,1.06799-6.8,1.17099-1.29839,.00934-2.58908-.19992-3.818-.61899-4.457-1.53-6.138-4.91199-7.917-8.492-.5-1.00699-1.017-2.04601-1.6-3.06599-.53677-.91693-1.1503-1.78671-1.834-2.60001l-.171,.222c-.10396,.13962-.26896,.22044-.443,.217-.26369-.00826-.50783-.1411-.658-.358-.1132-.15584-.13921-.35863-.069-.53799l.293-.72701c-1.65892-1.68637-3.42099-3.26808-5.276-4.73599-.777-.642-1.581-1.3-2.351-1.97099-1.5299-.25349-3.07824-.37926-4.629-.37601-4.31067-.08369-8.57249,.92422-12.389,2.92999-2.32903,1.38371-4.41344,3.14273-6.169,5.20599-1.7439,2.056-3.19899,4.34041-4.325,6.78999-2.25229,4.94766-3.42627,10.31784-3.444,15.754,.05006,13.02591,3.58499,25.80115,10.238,37,1.41946,2.36188,3.13726,4.53107,5.111,6.45401,1.97368,1.92487,4.29883,3.45255,6.849,4.5,2.62492,.92905,5.35827,1.51718,8.133,1.75,2.65562,.23444,5.2753,.77466,7.807,1.60999,1.85597,.66516,3.32614,2.11194,4.021,3.957,.54951,1.5488,.35744,3.26413-.521,4.65302-.094,.16199-.2,.31699-.3,.466v.00601c-.049,.07199-.1,.14499-.147,.21899l1.555,2.065c.982,1.31201,2.132,2.879,3.226,4.55499,1.658,1.90701,3.4,3.79999,5.081,5.634v.005c1.015,1.10599,2.065,2.24899,3.085,3.38199,3.416,3.78299,6.818,7.70001,10.109,11.492l.011,.01199c1.53,1.76199,3.112,3.58401,4.679,5.37399,4.057,4.633,8.71,9.466,14.641,15.20999,2.024,1.966,4.3,3.82999,6.5,5.634,3.09111,2.39941,5.98994,5.03677,8.67,7.888,1.31548,1.49393,2.30125,3.24841,2.893,5.14899,.60076,1.80246,.70882,3.73276,.313,5.591-.591,2.48309-2.4009,4.49707-4.807,5.349-1.21314,.48984-2.50871,.74338-3.817,.74701-5.684,0-10.819-4.81601-14.946-8.686-.384-.35999-.781-.73199-1.166-1.08899l-.22-.20001c-9.72171-8.83789-18.19456-18.95856-25.185-30.08301-3.6597,2.43832-7.96244,3.73193-12.36,3.716-3.95967,.05948-7.84465-1.08084-11.144-3.271-3.71672-2.71146-6.41331-6.59433-7.656-11.02399-1.16152,.27347-2.34978,.41733-3.543,.42899h-.2c-.736,.427-1.341,.76199-1.9,1.05499-1.64003,.86685-3.46404,1.32773-5.319,1.34399-1.72339,.01877-3.41706-.44955-4.886-1.35101-1.54778-.9856-2.74336-2.4364-3.415-4.14401-.96439-2.54251-1.14618-5.31537-.522-7.96201,.59764-2.67633,1.43089-5.29453,2.49-7.82401l.392-1.013c1.09355-2.97116,2.34534-5.88165,3.75-8.71899-4.13756-3.16852-7.7255-6.99631-10.62-11.32999-5.18933-7.89944-8.9122-16.66965-10.99003-25.88992-1.10968-4.685-1.83145-9.45346-2.158-14.25702-.32479-4.59204-.21094-9.20459,.34-13.77499,.69409-5.45004,2.27637-10.74957,4.684-15.688,1.2098-2.48227,2.64447-4.8485,4.286-7.069,1.62342-2.19775,3.47509-4.21735,5.524-6.02499l-.3-.78c-2.37373-5.76569-4.28607-11.71069-5.719-17.77901-1.45691-7.24199-2.47544-14.56529-3.05-21.92999-1.43465-15.52153-1.13615-31.15456,.89-46.61,1.80568-14.50101,5.1612-28.76656,10.009-42.552,4.83889-13.77715,11.46766-26.85852,19.716-38.908-2.40998-2.74047-4.35443-5.85747-5.756-9.22701-.65072-1.65837-1.0625-3.40078-1.223-5.175-.30131-3.70779,.62874-7.41144,2.646-10.537,.98882-1.53426,2.28221-2.84908,3.8-3.863,.92962-.55429,1.93145-.9773,2.977-1.257,.83395-.23606,1.64359-.5508,2.418-.94l.508-.28c.453-.264,.418-.351,.222-.834-.21161-.50565-.37565-1.02992-.49-1.566-.962-4.42-.861-8.206,.3-11.254,1.353-3.552,4.129-5.983,8.25-7.226,1.38566-.41918,2.82533-.63279,4.273-.634,3.35408,.06498,6.62063,1.08181,9.41901,2.932,2.86331,1.84093,5.38456,4.16592,7.451,6.871,6.70512-4.57294,13.98426-8.24126,21.649-10.91,7.523-2.773,15.264-4.941,23.194-7.1,17.03302-4.5102,34.40833-7.611,51.95-9.271,10.44566-1.04485,20.93721-1.56418,31.435-1.556,12.5204,.01954,25.03166,.67773,37.485,1.972,11.894,1.207,24.125,2.945,37.39099,5.315,2.34695,.34385,4.24799,2.08213,4.79999,4.389,9.96301,.455,20.09399,1.085,29.89099,1.695,6.56601,.408,13.35501,.831,20.02899,1.2,1.40451,.06131,2.77121,.4739,3.97501,1.2,2.24573,1.36692,3.63632,3.78745,3.686,6.416,.02328,1.40911-.30713,2.80157-.961,4.05-.56699,1.1-1.15201,2.165-1.70001,3.149l.728-.24c2.66223-.92173,5.45148-1.42439,8.26801-1.49,2.43295-.03851,4.83765,.52522,7,1.641,2.95859,1.5508,5.25629,4.11952,6.46899,7.232,1.20718,3.09917,1.48212,6.48362,.79099,9.737-.37402,1.66962-.91302,3.29795-1.60901,4.861,.5-.033,.992-.049,1.46301-.049,.87845-.0008,1.75601,.05599,2.62701,.17,1.75174,.22622,3.45285,.74582,5.03201,1.537,4.71405,2.35655,7.76859,7.0955,7.96799,12.362,.263,5.226-1.138,10.752-4.16299,16.423-2.8714,5.23597-6.56357,9.97779-10.936,14.045,1.27945,2.64913,1.69534,5.63298,1.189,8.531-.46704,2.75748-1.76855,5.30538-3.729,7.3-1.95419,1.93835-4.25687,3.49021-6.78699,4.574,2.20337,6.77598,3.06543,13.91634,2.53799,21.022-.12244,1.19487-.65207,2.31129-1.5,3.162-.81842,.85643-1.86908,1.45528-3.02301,1.72301,4.09521,11.47791,7.34555,23.23994,9.72501,35.192,2.16501,10.51801,4,21.951,5.772,35.983,2.11795,16.9762,3.23288,34.06253,3.33899,51.17,.06299,7.73901-.06699,15.539-.388,23.18399l-.13101,2.89999c-.08401,1.75201-.15201,3.54401-.21799,5.27701-.74913,35.09824-14.74913,125.09824-37.82202,137.99301-9.11819,6.59436-19.00064,12.0614-29.43201,16.28201-10.36133,4.22357-21.16495,7.26807-32.207,9.07599-8.07907,1.32486-16.25195,1.99506-24.43892,2.004Zm-183.261-169.77402c-1.38982-.01758-2.7423-.45236-3.882-1.24799-4.194-2.811-7.032-7.168-9.777-11.38101-.266-.40701-.566-.86899-.858-1.31201l-.314-.47601c-.272-.40799-.542-.828-.8-1.23401l-.006-.009c-.99926-1.72604-2.23525-3.30371-3.672-4.68701l-.409-.358c-.60071-.55856-1.31402-.98206-2.092-1.242-.35532-.09558-.72207-.14203-1.09-.138-.82235,.00229-1.63439,.18314-2.38,.53-.73521,.3093-1.32024,.89398-1.63,1.629l-.06,.189c-.09011,.36133-.41977,.61108-.792,.60001-.46194,.01718-.85034-.34338-.86751-.80533-.00023-.00623-.00039-.01245-.00049-.01868-.05442-2.47495,.90425-4.86478,2.654-6.616,2.03819-1.99475,4.78423-3.09988,7.636-3.073,.66037,.00003,1.3195,.05725,1.97,.17099,4.156,.72299,7.585,3.20901,10.741,5.69299l1.567,1.23999,.831,.64999,.026,.021c3.618,2.82599,7.719,6.02899,9.884,10.065,1.2857,2.51648,1.14536,5.52515-.369,7.91101-.66875,1.12762-1.5886,2.08578-2.688,2.79999-1.07766,.70462-2.33451,1.086-3.62201,1.09909Z"/>
  </g>
  <path d="M838.88509,713.07866h0c-4.26782-.06833-8.48694-.91872-12.448-2.509-5.22995-2.10033-10.15372-4.89436-14.639-8.307-1.04096-.81031-1.76408-1.96065-2.043-3.25-.24223-1.21977-.14185-2.4828,.29-3.649,.49161-1.38448,1.34189-2.61366,2.464-3.562,1.06292-.93807,2.42367-1.46947,3.841-1.5,1.05786,.00921,2.09017,.3261,2.971,.912,.318,.244,.65133,.50067,1,.77,2.90203,2.33782,5.96529,4.46811,9.167,6.375,4.14,2.357,7.73299,3.5,10.984,3.5,1.59294,.01048,3.17168-.30003,4.642-.913,1.63602-.71284,3.10736-1.75558,4.32201-3.063,2.33896-3.02702,3.25586-6.91705,2.515-10.67-.88257-3.58583-2.73323-6.86031-5.35001-9.466-2.39584-2.53107-5.1201-4.72964-8.10001-6.537-.83101-.71128-1.1057-1.87881-.679-2.886,.22859-.71034,.66295-1.33681,1.248-1.8,.68513-.52537,1.52773-.80376,2.39101-.79,.2883,.00095,.576,.02637,.86,.076,3.37193,.53931,6.61191,1.70976,9.55,3.45,2.52097,1.51731,4.70639,3.53228,6.423,5.922,3.18941,4.58641,4.64276,10.15807,4.10001,15.718-.24017,2.84701-.94975,5.63465-2.10001,8.25-1.14369,2.62582-2.74683,5.02645-4.73399,7.089-4.37111,4.49108-10.40924,6.9679-16.67502,6.84002Z"/>
  <g id="face_Cute" data-name="face Cute">
    <path id="_Ink-9" data-name=" Ink-9" d="M727.47175,674.30422c-.98778-.04404-1.85375-.67384-2.2-1.6-.26772-.70514-.03453-1.5023,.571-1.952,4.34307-3.52839,9.02687-6.6153,13.982-9.215,5.00253-2.65725,10.22981-4.86782,15.621-6.606-.77389-1.23682-1.26904-2.6274-1.451-4.075-.19426-1.42212-.02606-2.87027,.489-4.21,.173-.577,.389-1.132,.577-1.6l.445-1.085c.04457-.51173,.13937-1.01783,.283-1.511l.023-.15,.013,.009c.39898-1.28778,1.09818-2.46236,2.04-3.427,.93821-.97581,2.11827-1.68557,3.42-2.057,.64922-.17895,1.31956-.26976,1.993-.27,1.05263,.00191,2.09395,.21725,3.061,.633,1.73062,.33889,3.32576,1.17259,4.592,2.4,1.27876,1.20865,2.2289,2.72283,2.761,4.4,.08,.285,.17,.569,.268,.844l.154,.415-.414-1.054c.15353,.61023,.39185,1.19593,.708,1.74,.25421,.45656,.46577,.93559,.632,1.431,.367,1.34734,.48293,2.75071,.342,4.14,1.271,.013,2.318,.058,3.292,.143l1.058,.094c5.869,.549,12.424,1.563,15.94,6.682,.51041,.77465,.78805,1.67939,.8,2.607,.0239,.96503-.16419,1.92356-.551,2.808-.61917,1.63738-2.03485,2.84278-3.75,3.193-.65432,.09914-1.31521,.14861-1.977,.148-2.61945-.12263-5.20609-.63422-7.675-1.518-2.04617-.68417-4.15059-1.1799-6.287-1.481-1.78363-.19544-3.57669-.29225-5.371-.29-3.54492,.01092-7.08162,.34193-10.567,.989-6.28344,1.29697-12.46903,3.02949-18.512,5.185-4.055,1.344-8.249,2.733-12.471,3.834l-1.42,.361v-.007c-.13713,.03378-.27777,.05124-.419,.052Zm166.329-8.4c-1.64601,.0426-3.15468-.9134-3.819-2.42l-.10001-.212c-1.258-2.928-4.71001-4.412-10.261-4.412-1.66353,.01175-3.32498,.11993-4.976,.324-3.14944,.42604-6.25949,1.1049-9.3,2.03-1.11099,.32-2.192,.663-3.19501,.986l-1.061,.345c-.472,.152-2.313,1.145-2.27299,1.4,.007,.042,.062,.063,.16499,.063,.14417-.00592,.28746-.02534,.42799-.058,.03288-.00689,.06641-.01025,.10001-.01,.23897,.0096,.44165,.17863,.494,.412,.04843,.18734-.04893,.38166-.228,.455-.37244,.18103-.78091,.27572-1.19501,.277-.84091-.02211-1.63602-.38786-2.2-1.012-.67459-.71177-1.02649-1.66981-.97301-2.649,.22301-3.591,5.26601-5.75,8.60001-7.178,.44501-.191,.866-.371,1.237-.538l.186-.085c1.229-.568,2.48601-1.1,3.737-1.571-.73831-1.1186-1.35037-2.31557-1.825-3.569-.46915-1.18664-.79153-2.42616-.96001-3.691-.16971-.62197-.16971-1.27803,0-1.9l.026-.181c-.08839-.42248-.12999-.85341-.12399-1.285l-.01801-.168h.01801c.04071-1.5028,.6293-2.9389,1.655-4.038,.99986-1.0298,2.37465-1.61003,3.81-1.608,1.47998,.03498,2.90913,.54668,4.075,1.459l.31599,.248c2.23929,1.18605,4.09019,2.99114,5.332,5.2,1.29816,1.94911,2.03979,4.21552,2.145,6.555,6.2,.02,11.20801,2.088,14.89999,6.145,1.16901,1.285,2.25999,3.528,1.487,5.621l-.42999,1.163c-.99573,2.31811-3.25175,3.8427-5.77397,3.90198h.00099Zm-171.359-29.828c-1.03039-.04721-1.92601-.7224-2.255-1.7-.75313-2.51844-.66395-5.21385,.254-7.677,.83821-2.50563,1.96795-4.90408,3.366-7.146,3.13451-4.94215,7.37169-9.09067,12.379-12.12,5.5-3.475,11.517-5.4,17.213-7.078l1.5-.437c1.1-.319,2.222-.676,3.307-1.021,3.551-1.131,7.222-2.3,10.712-2.3,3.18305-.0503,6.26623,1.11112,8.625,3.249,1.36892,1.30282,2.2239,3.05431,2.409,4.935,.27266,1.8649-.10897,3.76667-1.08,5.382-1.48873,2.4285-3.80726,4.23507-6.526,5.085-2.63403,.6994-5.34872,1.04874-8.074,1.039-1.147,.05-2.333,.1-3.528,.2-9.93271,1.04717-19.41802,4.67725-27.512,10.529-1.6361,1.23873-3.14879,2.63253-4.517,4.162-1.51929,1.73379-3.2513,3.26892-5.155,4.569-.33416,.21295-.72176,.32701-1.118,.329Zm170.75499-10.589c-2.82253-.11555-5.43578-1.52041-7.089-3.811l-.158-.2c-2.08658-2.78745-4.51187-5.30445-7.22-7.493-2.71785-2.18747-5.7065-4.01521-8.892-5.438-3.20186-1.45217-6.57114-2.50249-10.03101-3.127l-1.10001-.188c-1.13487-.21201-2.28485-.33306-3.439-.362-.43073-.00305-.86093,.0304-1.286,.1-.73058,.09715-1.43361,.3425-2.06599,.721,.1093,.24629,.08319,.53163-.069,.754-.15884,.2545-.43509,.41198-.735,.419-.14015-.00095-.27777-.03742-.39999-.106-1.21423-.55412-2.07545-1.67334-2.3-2.989-.04155-1.75265,.74878-3.42158,2.131-4.5,1.692-1.561,4.293-2.687,7.729-3.349,2.82617-.50444,5.69333-.74349,8.56401-.714h.00999c6.57515,.05633,13.02899,1.77644,18.75999,5,5.74756,3.17571,10.68069,7.64058,14.412,13.044,1.09435,1.6655,1.43971,3.71374,.952,5.646-.48848,2.28466-1.88802,4.2711-3.875,5.5-1.17758,.70781-2.52408,1.08537-3.89799,1.093Z"/>
  </g>
  <path d="M824.50925,768.26349c-13.60163,.80157-27.03241-.35695-38.61013-3.33045-6.01482-1.49643-11.4768-3.42842-16.21735-5.73634-4.14493-1.99786-7.54724-4.33502-10.07835-6.92316-2.49207-2.55107-3.82788-5.37278-3.92395-8.28883-.02269-.61244,.3979-1.22846,1.18872-1.74109,.81071-.5141,1.91432-.90327,3.15137-1.1113,.45967-.07853,.93177-.1317,1.40694-.15844,.80404-.04704,1.60439-.01096,2.34812,.10585,1.09995,.17517,1.99931,.54285,2.53513,1.03643,1.19127,.66614,2.75996,1.53927,4.33413,2.38037,5.2514,2.90841,11.24965,5.47155,17.86924,7.63577,6.49174,2.04863,13.97858,3.31638,21.9069,3.70949,3.28383,.16522,6.62639,.1545,9.96925-.03201,5.72949-.3301,11.38354-1.14747,16.70159-2.41447,9.0166-2.16424,16.94856-5.37058,23.04333-9.31481,2.25588-1.55097,5.72721-2.59193,9.47277-2.84062l.08346-.00469c3.86701-.16311,7.57706,.41666,10.33303,1.61472,2.8966,1.17502,4.69687,2.87257,5.05238,4.7641,.23893,1.83271-1.08779,3.69986-3.67125,5.16664-4.76498,2.82218-10.24287,5.34749-16.28236,7.50614-6.0208,2.15828-12.53736,3.93897-19.37675,5.29483-6.87193,1.36738-14.02129,2.27025-21.23624,2.68186Z"/>
</svg>
</svg>
